<svg xmlns="http://www.w3.org/2000/svg" version="1.1" xlink="http://www.w3.org/1999/xlink" xmlns:svgjs="http://svgjs.com/svgjs" width="100%" height="100%" viewBox="6.998467922210693 4.99985408782959 86.60387420654297 90.0001449584961"><g fill="#000"><path d="M63.441 95a.89.89 0 0 0-.488-.121c-.746.004-1.492.008-2.239 0-.53-.008-1.07.016-1.59-.07-.91-.149-1.82-.079-2.73-.114-.32-.011-.64-.082-.96-.125-.083-.011-.165-.047-.25-.047-.466-.003-.934.008-1.403-.003-.652-.012-1.309-.086-1.957-.043-.692.043-1.383-.016-2.067.058-.78.082-1.558.11-2.34.106-.07 0-.14.004-.21 0a2.458 2.458 0 0 1-.168-.02c-.235-.02-.469-.02-.703-.035-.493-.035-.98-.043-1.47-.066-.081-.004-.163-.036-.245-.06-.246-.062-.492-.132-.758-.128-.168.004-.34-.082-.508-.129-.035-.012-.07-.039-.105-.039a2.957 2.957 0 0 1-.82-.105c-.301-.086-.637-.055-.958-.075-.132-.007-.261.004-.386-.074a.647.647 0 0 0-.344-.098c-.309.02-.543-.246-.852-.187-.187-.18-.476-.094-.668-.266-.03-.027-.09-.023-.136-.03-.055-.013-.118-.013-.164-.036-.407-.223-.848-.363-1.239-.617-.492-.32-1.027-.574-1.504-.91-.828-.586-1.582-1.262-2.007-2.215-.125-.281-.286-.57-.27-.903-.184-.234-.082-.535-.168-.796-.059-.184-.008-.399-.062-.602-.055-.2-.055-.418-.067-.629-.023-.52-.055-1.039-.055-1.558-.003-.403.02-.81.063-1.211.02-.16.098-.317.133-.48.058-.29.078-.54-.137-.778-.223-.25-.387-.551-.625-.781-.285-.274-.598-.524-.969-.684a.969.969 0 0 1-.285-.176c-.219-.215-.562-.144-.785-.347-.02-.024-.074-.008-.113-.008a1.344 1.344 0 0 1-.64-.114 1.086 1.086 0 0 0-.423-.062 673.425 673.425 0 0 0-3.973 0 1.55 1.55 0 0 1-.5-.09c-.144-.047-.292-.062-.44-.094-.048-.007-.099 0-.142-.02-.242-.093-.476-.202-.718-.288-.164-.063-.317-.149-.477-.223-.344-.16-.637-.39-.941-.61-.364-.261-.735-.523-1.051-.835-.371-.371-.742-.746-1.004-1.211-.184-.332-.383-.66-.566-.992-.114-.2-.215-.407-.32-.614-.184-.363-.391-.714-.544-1.09-.199-.507-.496-.964-.675-1.484-.102-.293-.309-.547-.446-.828-.144-.3-.25-.613-.386-.918-.082-.183-.2-.355-.293-.535-.145-.277-.278-.563-.422-.84-.082-.164-.164-.332-.254-.492-.215-.39-.414-.781-.598-1.188-.183-.402-.418-.78-.625-1.175-.094-.168-.156-.356-.258-.52-.183-.289-.289-.617-.457-.918-.175-.32-.289-.676-.437-1.012-.137-.312-.305-.613-.43-.93a4.117 4.117 0 0 0-.223-.503c-.171-.317-.289-.656-.472-.969-.11-.18-.16-.39-.25-.582-.102-.219-.227-.426-.324-.644-.051-.118-.11-.243-.141-.36-.133-.492-.387-.937-.578-1.402-.145-.356-.266-.735-.488-1.055.03-.234-.18-.379-.215-.601-.028-.157-.149-.313-.211-.477-.156-.402-.301-.816-.5-1.195-.211-.41-.36-.852-.617-1.242.015-.227-.196-.372-.22-.598-.015-.156-.109-.309-.171-.465-.098-.258-.227-.508-.29-.773-.066-.274-.26-.5-.25-.797 0-.016-.01-.032-.019-.051-.105-.262-.261-.52-.304-.797-.04-.262-.254-.473-.211-.75-.188-.191-.086-.504-.285-.687-.012-.012-.012-.04-.016-.055-.078-.348-.117-.711-.25-1.031-.137-.332-.059-.715-.281-1.02-.04-.055-.004-.156-.004-.238 0-.238-.055-.465-.145-.688-.031-.074-.031-.168-.035-.254-.004-.207.004-.41-.11-.613-.066-.125-.066-.297-.066-.445 0-.406-.058-.805-.11-1.207a2.216 2.216 0 0 1 .036-.875c.07-.277.055-.578.07-.867.012-.25-.015-.493.11-.73a.871.871 0 0 0 .062-.481c-.039-.344.09-.657.16-.985.008-.043.028-.09.024-.136-.031-.313.07-.598.164-.887.008-.027.02-.059.016-.086-.04-.293.117-.547.175-.824.012-.067.004-.137.004-.207.004-.047-.02-.121.004-.145.192-.183.07-.453.184-.64.16-.266.054-.606.273-.848.012-.012.024-.035.02-.05-.09-.333.25-.583.18-.911.226-.25.124-.621.328-.879-.016-.273.222-.476.21-.75-.003-.02-.007-.047 0-.059.301-.421.41-.925.637-1.382.262-.524.563-1.04.738-1.606.485-.746.82-1.582 1.348-2.308.27-.372.485-.782.746-1.157.324-.464.668-.918 1.012-1.37.281-.376.57-.747.867-1.106a62.13 62.13 0 0 1 3.992-4.23c.473-.458.961-.895 1.45-1.333a54.43 54.43 0 0 1 1.363-1.183c.336-.278.695-.535 1.039-.805.3-.234.598-.484.898-.715.395-.3.793-.59 1.184-.89.32-.247.625-.512.945-.758.313-.246.633-.485.957-.719.336-.246.676-.477 1.016-.719.305-.222.605-.453.914-.676.344-.25.695-.492 1.039-.742.313-.226.621-.465.938-.695.355-.262.714-.527 1.078-.781.433-.297.867-.594 1.312-.871.434-.274.89-.508 1.317-.786.562-.363 1.168-.652 1.753-.972.282-.153.594-.29.899-.418.305-.125.617-.25.906-.402.356-.188.727-.32 1.094-.47.348-.14.734-.206 1.07-.374.27-.137.586-.09.844-.278.11-.078.297-.039.445-.07.262-.058.512-.164.79-.117.019 0 .042.008.058-.004.281-.215.617-.156.941-.184.2-.015.395-.093.594-.148.016-.004.031-.023.047-.023.441.046.852-.11 1.273-.176.184-.028.375-.004.567-.004.308 0 .61-.031.906-.117.066-.02.14-.004.211-.004.555 0 1.113.004 1.672 0 .101 0 .203-.04.305-.051.046-.008.093.004.14.008.125.015.266.074.367.035.164-.066.325-.047.489-.047 1.66-.004 3.324-.02 4.988.008.39.004.8.012 1.184.156.062.024.136.012.207.012h.984c.434 0 .86.031 1.273.172.106.039.239.015.356.004.34-.032.66.07.984.152.043.012.094.035.137.027.289-.054.539.106.809.141.296.039.582.18.867.203.312.024.562.246.879.195.175.22.504.09.683.301.274-.008.496.149.738.242.325.121.653.25.97.395.445.2.89.406 1.327.621.114.059.211.148.328.21.594.31 1.176.642 1.747.985.378.235.78.43 1.148.688.234.164.512.254.766.387.125.066.238.148.355.222.352.227.727.418 1.078.64.504.321 1.02.622 1.527.934.407.254.809.508 1.204.774.687.46 1.37.926 2.046 1.406.297.215.559.477.84.715.492.414 1.008.808 1.48 1.25.458.43.891.89 1.305 1.367.45.512.872 1.047 1.293 1.586.254.324.454.7.727 1.008.41.465.715 1 1.066 1.504.18.257.317.543.47.82.19.348.398.691.566 1.05.148.317.254.653.382.977.02.051.067.094.086.145.036.094.078.191.09.289.008.101.012.187.098.262.043.039.09.12.078.172-.04.214.117.378.137.574.03.336.238.629.234.98 0 .153.117.281.133.453.031.364.2.7.23 1.07.02.235.133.462.203.688.036.117.067.235.11.344.101.289.238.566.308.86.086.355.274.663.395 1.003.082.23.238.438.371.649.469.734.93 1.472 1.422 2.191.336.492.715.957 1.07 1.438.383.519.758 1.043 1.145 1.558.312.422.644.824.945 1.254.324.457.64.926.926 1.41.207.356.367.742.531 1.121.16.364.27.75.36 1.137.062.273.148.54.226.805.086.304.07.629.18.91.136.348.066.687.105 1.031.028.215.086.426.117.637.028.191.055.383.059.574.004.484.012.965.113 1.445.035.18-.039.38-.05.57-.024.442-.04.88-.063 1.32-.008.169-.113.31-.137.485a6.55 6.55 0 0 0-.039.399c-.012.172.008.336-.09.5a.704.704 0 0 0-.086.41c.036.402-.226.75-.183 1.152 0 .02.008.047 0 .059-.195.187-.078.469-.188.668-.132.242-.054.55-.27.754.032.234-.187.379-.214.605-.02.18-.168.344-.25.52-.117.25-.211.511-.344.754-.21.39-.437.777-.672 1.152a56.922 56.922 0 0 1-.992 1.531c-.215.316-.45.613-.676.918-.316.418-.632.832-.953 1.246-.054.07-.129.125-.187.195-.278.332-.547.668-.824 1-.07.082-.165.149-.23.235-.267.316-.52.64-.786.957-.156.187-.324.363-.484.547-.34.39-.668.785-.942 1.222-.305.497-.66.961-.953 1.461-.23.387-.383.82-.602 1.211a3.28 3.28 0 0 0-.312.711c-.082.285-.238.551-.219.863-.21.31-.113.692-.273 1.024a.826.826 0 0 0 .031.683c.047.098.09.207.094.317.011.27.18.488.218.75.028.172.118.348.176.523.13.403.328.782.45 1.188.132.43.289.855.437 1.281.14.398.293.793.434 1.195.082.235.144.477.226.715.086.25.152.508.274.75.12.246.218.52.246.79.015.16.14.245.14.398 0 .129 0 .28.063.39.168.309.086.653.164.977.254 1.027.086 2.074.12 3.113.005.192-.105.379-.124.574-.035.34-.152.657-.234.98a2.435 2.435 0 0 1-.215.536c-.203.426-.383.86-.594 1.281a8.74 8.74 0 0 1-.922 1.438c-.332.418-.644.851-.976 1.27a8.256 8.256 0 0 1-.57.628c-.454.465-.91.922-1.372 1.375-.289.285-.61.531-.937.766-.344.246-.657.531-.985.797-.148.117-.304.226-.457.34-.078.054-.172.097-.226.171-.207.285-.551.364-.817.563-.047.035-.133.008-.195.031-.258.106-.547.145-.79.254-.288.129-.624.05-.878.266-.035.03-.113.015-.172.015-.262-.015-.508.063-.758.117-.11.028-.222.04-.332.063-.082.016-.164.031-.242.058-.379.133-.8.106-1.164.297-.023.012-.059.004-.09.004-.203-.011-.398-.004-.578.114a.363.363 0 0 1-.242.058c-.29-.047-.54.098-.809.14-.105.02-.207.04-.312.044-.203.004-.41-.016-.598.105-2.203.016-4.402.016-6.617.016zm.64-74.965c.31-.152.626-.281.919-.453.625-.363 1.25-.73 1.898-1.05a14.61 14.61 0 0 0 1.07-.587c.332-.203.684-.367 1.028-.555.195-.109.378-.234.578-.335.32-.16.656-.293.972-.461.286-.157.602-.235.875-.41.133-.083.29-.122.434-.184.309-.14.625-.27.926-.43.23-.121.468-.219.718-.289.032-.008.055-.035.083-.05-.024-.024-.043-.048-.07-.067-.177-.129-.348-.262-.528-.387-.215-.152-.422-.316-.652-.45-.653-.366-1.254-.823-1.942-1.151-.394-.188-.765-.45-1.156-.664-.734-.399-1.453-.82-2.18-1.23-.324-.185-.644-.368-.972-.54-.336-.176-.657-.379-1-.547-.43-.207-.829-.48-1.278-.66-.136-.055-.261-.145-.394-.211-.297-.148-.59-.3-.895-.434-.219-.093-.469-.128-.672-.25-.21-.125-.488-.082-.66-.285-.02-.02-.078-.011-.117-.004-.164.032-.281-.09-.426-.125-.152-.039-.312-.058-.465-.109-.195-.066-.386-.152-.605-.125-.059.004-.14.027-.176-.004-.254-.219-.558-.164-.855-.176-.09-.007-.18-.035-.274-.058-.05-.016-.101-.055-.152-.059-.36-.023-.723-.039-1.082-.062-.152-.012-.3-.04-.453-.063-.07-.012-.14-.05-.215-.055a15.8 15.8 0 0 1-1.07-.054 25.719 25.719 0 0 0-1.649-.063c-.21-.004-.422.051-.633.055-1.004.004-2.011-.008-3.02.004-.91.008-1.82.039-2.73.058-.043 0-.09-.015-.12 0-.247.145-.52.118-.79.118-.219.004-.437-.008-.656.004-.211.007-.441-.012-.625.066-.277.121-.547.094-.824.113-.168.012-.34.04-.492.106-.13.058-.258.062-.391.07-.23.016-.457-.004-.695.047-.246.05-.477.191-.754.14a.669.669 0 0 0-.418.06c-.324.163-.723.042-1.016.288-.012.012-.039.004-.058.004-.317.004-.582.188-.883.258-.219.055-.414.207-.637.258-.254.062-.484.18-.727.273-.437.168-.851.387-1.28.582-.31.145-.626.274-.93.426-.29.144-.567.312-.848.473-.445.25-.902.48-1.332.754-.64.41-1.262.851-1.887 1.285-.273.187-.531.398-.804.59-.336.238-.684.46-1.024.699-.664.46-1.328.926-1.992 1.394-.285.2-.57.403-.852.614-.336.246-.664.507-1 .757-.37.278-.75.547-1.12.825-.368.277-.723.562-1.087.843-.52.403-1.066.778-1.554 1.215-.457.406-.922.8-1.39 1.195a37.88 37.88 0 0 0-1.028.91c-.375.344-.75.688-1.11 1.051-.367.368-.703.766-1.078 1.125-.738.72-1.418 1.493-2.086 2.278-.199.23-.39.472-.57.718-.262.36-.484.747-.77 1.082-.312.372-.523.801-.773 1.207-.168.286-.312.586-.465.883-.27.516-.562 1.024-.793 1.555-.129.293-.3.566-.402.879a4.835 4.835 0 0 1-.348.75c-.117.219-.152.457-.273.664a2.046 2.046 0 0 0-.18.402c-.082.258-.148.52-.222.778-.047.16-.118.316-.133.48s-.055.313-.125.457c-.032.074-.043.164-.059.246-.023.11-.023.23-.066.332-.082.188-.145.371-.117.578a.159.159 0 0 1-.008.086c-.13.239-.14.5-.184.762-.05.305-.14.602-.191.91-.059.332-.18.656-.157 1.008.004.098-.007.227-.066.297-.133.164-.105.344-.11.523-.003.23.032.465-.019.684-.086.351-.164.7-.16 1.066.004.578 0 1.156.004 1.73 0 .106.023.208.043.31.058.316.2.628.137.964-.008.04.015.09.027.133.05.18.14.36.14.54-.003.292.051.565.157.835.011.031.035.074.027.105-.07.36.25.645.184 1 .218.235.148.567.285.84.117.223.156.489.25.73.02.055-.008.13.02.173.152.25.171.547.277.812.101.258.164.531.254.79.043.113.078.226.117.343.074.234.172.465.23.71.004.017.016.032.024.048.093.183.242.36.258.547.02.222.253.347.207.574.242.281.308.652.48.969.195.363.348.754.516 1.132.175.395.351.79.535 1.18.18.383.332.781.515 1.164.153.313.262.645.391.969.063.156.113.316.184.465.14.3.297.594.441.89.078.157.145.32.215.48.125.298.281.58.39.884.044.129.122.242.157.386.031.125.129.239.183.372.075.168.137.34.203.511.079.207.2.395.29.598.082.184.117.394.218.566.246.434.43.899.668 1.336.219.399.426.801.637 1.2.082.156.16.312.238.468.094.184.176.367.27.547.187.363.383.719.566 1.082.113.211.215.43.32.645.075.156.145.316.22.476.14.29.273.582.413.875.102.207.207.41.305.621.184.39.332.801.547 1.172.183.317.293.66.465.977.183.332.336.68.5 1.02l.222.445c.145.289.27.585.438.863.281.465.629.867 1.066 1.199.418.324.844.621 1.36.758.101.023.23.012.297.07.097.086.195.078.3.078.239.004.48-.023.715.008.258.035.512.047.77 0 .086-.016.183.031.273.047.047.004.094-.004.14-.008.22-.015.434-.047.65-.039.136.008.253.078.41.016.113-.047.273.035.413.035.153.004.309-.031.465-.031.145 0 .293.02.442.035.074.008.148.027.222.043.118.023.235.05.356.074.21.043.426.082.637.121l.273.059c.11.027.219.05.324.086.07.023.137.093.2.09.242-.028.41.144.59.238.34.175.667.379.964.636.457.395.902.797 1.246 1.305.188.274.438.512.594.8.098.18.254.349.246.587-.004.113.074.226.113.34.02.062.059.125.055.183-.016.207.086.383.14.57.06.188.071.391.106.587.043.261.129.515.121.789-.012.386-.008.773 0 1.164 0 .12.028.242.059.363.062.25.133.496.117.758-.004.086-.031.199.012.261.191.274.172.618.328.915.203.39.457.714.797.96.449.32.918.614 1.394.887.336.192.688.399 1.055.473.297.058.558.238.879.207.137-.012.289.066.426.113.308.106.593.102.863-.11.422-.327.851-.644 1.27-.972.242-.191.468-.402.714-.59.446-.336.903-.66 1.348-.996.238-.176.46-.379.695-.558.453-.344.926-.668 1.367-1.028.34-.28.657-.593.97-.906.359-.363.698-.746 1.058-1.113.511-.524 1.027-1.043 1.633-1.461.53-.363 1.066-.719 1.687-.902.11-.032.254.003.336-.055.164-.11.332-.094.5-.094.29-.004.578 0 .867 0 .059 0 .13-.02.176.004.34.172.71.113 1.066.176.07.011.141.043.215.058.09.024.18.047.274.059.078.008.164-.016.238.004.289.078.566.215.883.18.031-.004.07.023.105.027.32.047.617.176.953.16.211-.012.426.074.637.117.07.016.149.059.215.047.523-.07.988.277 1.512.188.011-.004.023.035.043.039.289.05.562.18.867.14.11-.011.23.016.332.059.199.09.398.121.61.117.16-.004.331-.039.476.008.406.129.82.168 1.242.172.23.004.46.035.691.058.133.016.262.051.395.059.277.008.558.012.836 0 .414-.02.84.086 1.238-.117.016-.008.04 0 .059 0 .39-.016.777.008 1.172-.051.308-.047.605-.195.933-.137.063.012.153-.031.203-.074.133-.117.29-.094.442-.098.039 0 .093.016.117-.004.273-.21.637-.12.926-.289.117-.066.312-.003.41-.082.246-.187.558-.132.82-.27.211-.109.485-.105.727-.187a5.73 5.73 0 0 1 .918-.238c.215-.031.394-.191.636-.133.098.024.25-.011.317-.078.113-.11.23-.082.355-.094.075-.007.145-.03.22-.046.179-.043.358-.114.542-.13.371-.027.742-.019 1.094-.18.031-.015.078 0 .117-.003.758-.023 1.516.027 2.277-.047.434-.043.88.027 1.317.047.191.008.39-.043.554.117.047.043.137.059.211.059.25.004.438.148.633.281.05.035.145.094.168.074a.444.444 0 0 0 .117-.199c.02-.055.004-.117.004-.18-.02-.48-.039-.957-.062-1.437-.012-.313.035-.625-.055-.934-.059-.215-.133-.449-.113-.664.047-.449-.266-.828-.192-1.27-.234-.363-.125-.812-.297-1.195-.12-.27-.046-.57-.164-.855-.148-.375-.21-.785-.355-1.168-.082-.215-.125-.445-.18-.668a4.681 4.681 0 0 0-.265-.79c-.11-.237-.067-.53-.286-.722-.023-.02-.003-.093-.003-.144-.004-.051.011-.114-.016-.145-.195-.246-.149-.57-.277-.84-.051-.105-.047-.242-.067-.363-.012-.082 0-.18-.035-.25a1.201 1.201 0 0 1-.144-.601c.003-.137-.168-.336-.305-.352-.207-.031-.422-.035-.63-.066-.128-.016-.269-.032-.378-.098-.078-.047-.16-.05-.234-.086-.254-.121-.532-.16-.805-.223-.2-.043-.402-.082-.602-.129a7.765 7.765 0 0 1-.406-.105c-.062-.016-.121-.07-.176-.07-.398.02-.785-.079-1.175-.118a12.456 12.456 0 0 0-.934-.05c-1.106-.032-2.215-.036-3.32.047-.032 0-.063-.008-.09 0a1.989 1.989 0 0 1-.758.117c-.078 0-.168-.024-.238.004-.516.203-1.082.129-1.61.289-.343.105-.715.062-1.062.183-.246.086-.512.094-.762.18-.121.043-.258.05-.379.094-.308.11-.617.203-.933.27-.247.05-.47.171-.727.21-.172.024-.336.133-.527.164-.176.024-.32.203-.528.16-.328.192-.699.282-1.039.446-.191.09-.394.152-.586.254-.125.066-.254.148-.394.195-.192.07-.39.117-.57.207-.286.137-.551.309-.833.45-.375.194-.78.339-1.136.57-.336.218-.696.398-1.028.62-.543.364-1.109.692-1.664 1.04-.308.191-.613.39-.922.582-.53.328-1.066.652-1.597.98-.211.133-.438.242-.649.383-.273.184-.597.289-.89.441-.196.106-.383.22-.594.297-.184.067-.367.133-.531.235-.274.175-.582.28-.875.414-.453.203-.922.383-1.352.625-.309.175-.684.199-.95.449-.284-.063-.48.25-.765.18-.265.218-.617.18-.918.308-.125.055-.3.008-.414.078-.199.118-.422.121-.625.137-.328.027-.66-.023-.992-.047-.05-.004-.102-.039-.152-.058-.051-.02-.11-.067-.157-.055-.343.09-.632-.129-.93-.215a2.675 2.675 0 0 1-1.038-.594 8.37 8.37 0 0 1-1.793-2.304 24.997 24.997 0 0 0-1.137-1.918 12.462 12.462 0 0 1-.54-.942 4.288 4.288 0 0 1-.316-.738c-.054-.2-.152-.395-.207-.598-.082-.285-.207-.562-.246-.851-.043-.32-.18-.614-.218-.93-.02-.129-.059-.254-.082-.383-.024-.11-.051-.222-.067-.332-.008-.058.008-.12 0-.18-.047-.27-.117-.316-.394-.304a.855.855 0 0 0-.375.113c-.133.074-.332.027-.47.094a1.234 1.234 0 0 1-.683.156c-.027 0-.066-.008-.086.008-.265.203-.59.098-.886.16-.262.055-.551.02-.82-.012-.333-.039-.673-.078-.989-.175a5.771 5.771 0 0 1-1.246-.59c-.227-.133-.426-.317-.648-.457-.676-.434-1.168-1.047-1.645-1.672-.332-.442-.621-.918-.926-1.38-.136-.21-.27-.425-.39-.644-.075-.129-.114-.273-.184-.402-.074-.129-.039-.29-.152-.422-.063-.074-.04-.27.011-.387.11-.257.309-.406.614-.363.097.012.203-.008.3.004.098.016.211.031.293.082.414.27.82.55 1.192.879.496.437 1.023.836 1.543 1.25.23.184.469.36.703.535a8.45 8.45 0 0 0 1.05.637 2.47 2.47 0 0 0 1.727.27c.16-.028.305-.118.457-.122.348-.008.645-.199.977-.258.129-.023.246-.125.398-.113.047.004.094-.054.145-.078.156-.078.312-.156.473-.234.418-.203.816-.438 1.214-.672.352-.203.715-.387 1.082-.563.317-.148.645-.27.961-.414.207-.093.434-.18.559-.379.195-.316.375-.64.555-.964.195-.348.375-.704.57-1.051.203-.356.45-.688.621-1.059.227-.496.559-.933.758-1.45.113-.288.308-.546.441-.831.145-.317.258-.649.399-.969.12-.281.23-.562.332-.848a8.31 8.31 0 0 1 .363-.894c.156-.316.246-.66.437-.957.094-.145.13-.324.207-.48.145-.301.305-.59.454-.891.078-.156.183-.309.25-.465.18-.418.414-.805.644-1.195a32.46 32.46 0 0 1 1.102-1.692c.46-.676.922-1.351 1.53-1.91.325-.297.626-.613.93-.93.083-.082.18-.101.262-.054.051.027.082.129.078.199 0 .285.016.562-.101.851-.113.286-.18.602-.285.899-.16.437-.36.867-.567 1.285-.203.406-.363.828-.562 1.23-.125.25-.219.508-.332.762-.117.262-.246.516-.352.782a21.586 21.586 0 0 1-.902 1.957c-.055.105-.149.203-.176.312-.078.36-.324.645-.422.992-.152.07-.093.239-.164.352-.09.148-.18.3-.254.46-.152.337-.285.68-.445 1.012-.223.457-.461.907-.691 1.356-.22.43-.418.867-.66 1.281-.254.43-.497.867-.715 1.317-.168.34-.364.668-.536 1.003-.214.418-.43.836-.628 1.266a4.046 4.046 0 0 1-.899 1.266c-.465.437-1.016.738-1.516 1.117-.32.242-.671.445-1.003.676-.204.136-.211.214-.122.453.055.148.125.285.188.43.195.437.375.878.55 1.324.06.144.095.3.141.449.086.265.168.531.266.789.078.203.219.394.266.605.07.332.273.586.433.868.254.433.543.847.797 1.285.238.414.484.832.672 1.273.176.422.402.809.61 1.211.222.43.55.656 1.027.754.312.063.582.066.894 0 .356-.078.719-.14 1.074-.227.102-.023.211-.023.301-.066.235-.113.504-.105.735-.25.19-.121.44-.14.648-.238.352-.164.719-.285 1.07-.45.157-.074.309-.18.477-.21.379-.075.691-.301 1.062-.399.22-.058.41-.207.618-.308.273-.13.57-.227.828-.383a12.99 12.99 0 0 1 1.004-.531c.441-.215.851-.481 1.3-.68.442-.195.844-.465 1.27-.692.25-.136.515-.246.77-.378.359-.192.71-.399 1.07-.59.382-.2.777-.387 1.16-.59.285-.153.57-.297.867-.426.164-.07.313-.16.473-.227.195-.085.41-.136.59-.242.199-.12.445-.14.62-.3.192.046.278-.153.434-.176.383-.055.703-.285 1.063-.403.222-.07.449-.164.672-.25a8.98 8.98 0 0 1 1.289-.41c.136-.031.234-.136.367-.133.164.004.336-.003.457-.12.14-.141.324.015.469-.098.07-.055.172-.063.261-.09.063-.02.13-.055.188-.047.219.02.402-.086.601-.137.215-.05.442-.035.66-.074.337-.059.657-.195 1.012-.156.13.011.262-.055.395-.047.246.016.465-.09.695-.125.348-.05.7-.004 1.051-.04.316-.027.645.024.977-.015.535-.058 1.078-.047 1.617-.07.133-.008.261-.047.394-.055.133-.012.059-.054.02-.094-.145-.152-.332-.28-.297-.535-.168-.152-.09-.36-.129-.543a2.798 2.798 0 0 1-.004-1.004c.027-.113-.004-.238.016-.355.023-.113.078-.227.117-.34.004-.008 0-.02 0-.027l.059-.871c.003-.032-.008-.067.003-.09.13-.184.051-.403.11-.602.02-.074-.02-.207-.168-.203-.36.004-.719 0-1.074 0-.137 0-.211.074-.282.184-.175.265-.144.578-.199.87-.023.126.035.278-.012.388-.136.324-.105.66-.109 1-.004.218.02.445-.059.66-.062.164-.113.332-.168.5a.467.467 0 0 1-.042.101c-.16.254-.368.446-.66.551-.184.066-.36.156-.548.09-.273-.094-.546-.2-.734-.442-.262-.335-.351-.746-.406-1.144-.063-.453.004-.918-.067-1.379-.023-.137.047-.289.051-.433a45.94 45.94 0 0 0 0-1.286c0-.144-.011-.113-.21-.156-.09-.02-.141.05-.227.023-.09-.027-.196-.011-.293-.003-.055.007-.106.043-.156.058-.09.024-.184.051-.274.059-.285.011-.57.027-.828.164-.04.023-.098.015-.145.015a1.818 1.818 0 0 0-.882.176c-.192.086-.246.149-.211.324.023.11.066.227.054.332-.027.262.086.508.051.782-.035.246.055.508-.039.765-.031.078-.012.18-.004.266.012.125.059.246.055.367-.008.25-.05.5-.05.75 0 .242-.134.426-.24.621-.07.121-.187.196-.35.16a.758.758 0 0 0-.266 0c-.192.036-.329-.078-.426-.187a1.26 1.26 0 0 1-.27-.484c-.035-.122-.043-.25-.113-.372a.532.532 0 0 1-.066-.328c.05-.382-.16-.761-.008-1.144a.177.177 0 0 0-.004-.09c-.059-.293-.152-.586-.164-.883a3.02 3.02 0 0 0-.133-.726c-.012-.051-.043-.102-.055-.157-.035-.14-.199-.257-.332-.23-.101.023-.203.039-.308.058-.117.024-.278.008-.348.079-.125.12-.25.101-.383.101-.222-.004-.36.192-.562.23-.02.005-.035.067-.04.102-.023.125-.054.246-.058.371 0 .188.016.371.031.555.024.23.075.46.082.691.016.555 0 1.106.184 1.641-.063.469.129.96-.121 1.414-.008.36-.238.508-.547.594-.477.133-1.04-.27-1.07-.758a.805.805 0 0 0-.086-.352c-.094-.14-.082-.289-.09-.44-.012-.18.008-.388-.07-.536-.102-.188-.102-.363-.11-.555-.015-.39.028-.781-.05-1.172-.079-.394-.086-.804-.13-1.203-.015-.187-.164-.293-.331-.21-.31.148-.641.238-.954.366-.28.114-.554.25-.847.336-.024.008-.051.02-.078.032-.22.113-.461.183-.696.265-.242.086-.511.125-.73.254-.211.125-.492.074-.66.285-.235.012-.422.137-.602.274-.086.066-.2.137-.23.226-.036.114-.043.274.011.375.145.29.04.649.278.907.015.015.008.058 0 .086-.04.167.082.285.12.43.04.152.06.312.126.456.066.149.086.301.125.457.074.301.148.598.207.903.047.254.125.511.137.773.011.207-.004.418.003.629a.832.832 0 0 1-.171.559c-.336.453-.829.52-1.239.144-.336-.305-.37-.746-.562-1.117-.008-.016.004-.04 0-.059-.031-.105-.047-.218-.094-.32a.653.653 0 0 1-.086-.352c.004-.058.012-.136-.02-.168-.203-.214-.148-.511-.261-.761-.106-.235-.156-.512-.242-.766-.024-.07-.012-.156-.043-.219-.114-.226-.176-.468-.274-.695a.887.887 0 0 0-.195-.305c-.098-.086-.172.024-.242.09-.012.012-.04 0-.055.008-.398.195-.805.375-1.191.59-.52.285-1.032.59-1.536.91-.257.164-.539.309-.707.598-.078.136-.093.234-.03.37.128.274.23.567.339.845.117.3.133.625.281.898.082.148-.004.3.063.422.117.207.183.414.172.648-.004.028 0 .067.015.082.156.184.16.403.164.621 0 .059 0 .125.028.168a.878.878 0 0 1 .148.536v.597a.918.918 0 0 1-.71.903.309.309 0 0 1-.169-.02c-.43-.195-.762-.477-.922-.945-.062-.192-.187-.364-.191-.578-.234-.207-.137-.536-.27-.786-.062-.117-.047-.277-.07-.418a.477.477 0 0 0-.039-.132c-.156-.305-.11-.66-.254-.973-.05-.113-.039-.258-.062-.39-.051-.247-.211-.317-.41-.153-.262.219-.532.438-.754.7-.274.32-.442.702-.391 1.148.023.23.039.46.058.691.004.02.016.035.02.05.152.458.309.911.46 1.368.087.262.153.531.263.785.129.301.14.75-.024.985-.125.175-.289.335-.488.394-.402.117-.73-.082-1.012-.434-.312-.386-.383-.882-.652-1.285-.008-.015.004-.043 0-.058-.024-.102-.035-.207-.082-.293a.634.634 0 0 1-.102-.352c.004-.062-.03-.125-.054-.183-.07-.176-.137-.352-.125-.551.007-.067-.036-.14-.055-.211-.047-.203-.129-.395-.121-.61.008-.269.004-.539 0-.804 0-.258-.086-.356-.34-.414a1.247 1.247 0 0 1-.281-.114c-.364-.191-.528-.562-.746-.878a1.221 1.221 0 0 1-.176-.493c-.024-.152-.094-.257-.164-.382-.063-.118-.05-.278-.07-.418-.008-.028-.008-.059-.024-.079-.09-.113-.082-.25-.117-.37-.082-.27-.137-.544-.23-.805-.16-.457-.028-1.02.374-1.286a.67.67 0 0 1 .618-.046.974.974 0 0 1 .5.492c.156.355.32.703.476 1.058.086.192.184.387.235.59.085.324.238.617.359.926.043.11.121.113.18.102a.747.747 0 0 0 .304-.122c.332-.261.715-.437 1.086-.625.14-.07.27-.167.399-.261.035-.028.066-.078.066-.121.004-.153.02-.305-.074-.446a.827.827 0 0 1-.102-.257c-.027-.118-.035-.243-.062-.364-.035-.152-.09-.304-.113-.457-.055-.332.292-.8.542-.867.16-.043.38-.074.508 0 .215.117.39.316.555.504.336.375.273.426.68.059.492-.442.941-.926 1.488-1.313.398-.285.785-.578 1.234-.777.168-.075.328-.188.5-.23.137-.032.239-.098.356-.16.308-.165.566-.466.976-.392.043.008.13-.062.145-.109a1.859 1.859 0 0 0-.059-1.148c-.027-.067-.105-.125-.113-.192a6.364 6.364 0 0 1-.062-.722c-.004-.293.156-.524.359-.711.101-.102.25-.2.383-.211.312-.02.625-.047.918.16.238.164.375.387.48.617.145.309.215.645.344.965.105.262.156.348.543.219.277-.094.574-.137.86-.223.195-.055.406-.055.593-.156.07-.04.168-.028.254-.04.172-.019.351-.011.512-.066.23-.074.457-.12.699-.113.086.004.187.012.258-.023a1.21 1.21 0 0 1 .715-.153c.097.008.152-.027.195-.129.058-.132.082-.238.008-.375a1.067 1.067 0 0 1-.133-.601c.004-.047.004-.114-.024-.14-.171-.169-.105-.4-.144-.595a1.435 1.435 0 0 1 .21-1.043c.22-.336.493-.558.919-.59.422-.03.738.133.988.434.207.254.383.535.387.887 0 .05.043.101.054.152.024.102.055.203.06.305.007.238-.005.48.003.719.012.289.043.316.328.316.172 0 .34.012.508 0 .289-.023.562-.082.77-.312.081-.094.132-.18.128-.309-.007-.68 0-1.356-.004-2.031a.67.67 0 0 1 .102-.348c.148-.289.379-.375.691-.348.286.02.633.317.637.602a.488.488 0 0 0 .121.344.242.242 0 0 1 .063.152c-.016.25.199.414.23.652.016.133.086.262.13.395.062.176.105.394.273.473.152.074.355.078.535.066.164-.008.343-.043.48-.129.172-.105.371-.043.524-.113.343-.16.699-.18 1.066-.168.117.004.195-.055.254-.168a.701.701 0 0 0 .098-.352c.003-.359-.032-.722.054-1.082a1.47 1.47 0 0 1 .434-.718c.152-.145.332-.133.515-.13.07 0 .141.005.207 0a.46.46 0 0 1 .47.227c.144.25.316.489.292.809-.02.308-.05.633.063.926.097.242.117.48.113.73 0 .191.078.277.27.293.148.012.3.004.449.004.11 0 .25-.043.324.008.332.226.703.152 1.066.172.153.007.243-.063.278-.196.054-.207.258-.37.183-.613 0-.012.032-.027.043-.043a.964.964 0 0 0 .14-.57c-.01-.153.227-.469.352-.489.41-.07.68.11.711.547.016.196.04.375.13.547.015.035.058.067.054.098-.008.258.152.453.242.676.063.16.16.297.32.41.278.195.622.129.899.289.367-.055.672.164 1.012.23.144.028.289.133.422.118.296-.036.5.253.789.195.238.207.562.281.753.562.16.246.157.73-.054.938-.137.137-.32.191-.5.223a.612.612 0 0 0-.336.136c-.266.235-.578.313-.926.29-.11-.005-.223.042-.332.054-.082.012-.172.027-.238-.004-.18-.086-.367-.027-.543-.058-.137-.02-.27-.075-.399-.118-.07-.023-.136-.058-.207-.082-.14-.05-.21-.015-.238.121-.012.063.012.133.023.2.008.043.047.101.032.132-.117.223-.032.465-.059.696-.008.074.02.168-.015.23-.125.215-.098.445-.106.676-.004.14-.004.281-.043.426-.035.129-.133.246-.125.363.012.293-.16.496-.293.719-.09.152-.062.222.11.226.34.004.68 0 1.015 0 .07 0 .149-.02.207.008.399.184.82.18 1.242.176.168 0 .364.004.5.086.239.133.477.07.711.086.028 0 .078-.051.082-.078.024-.243.043-.485.063-.723.004-.039-.016-.094.004-.117.183-.211.093-.465.113-.7.023-.242-.02-.511.078-.714.125-.262.074-.512.106-.766.027-.195.078-.383.12-.578.016-.082.051-.16.055-.246.004-.2-.027-.406.153-.563.027-.027.02-.093.027-.136.02-.094.04-.184.063-.274.046-.191.164-.367.12-.582-.007-.027.036-.062.047-.097.07-.204.137-.41.133-.633-.008-.348-.004-.696-.004-1.047 0-.059.016-.125-.004-.176-.14-.398-.25-.812-.457-1.187-.16-.29-.246-.614-.421-.899-.09-.148-.125-.34-.239-.465-.316-.347-.644-.68-.988-.992-.457-.422-.93-.824-1.402-1.226-.27-.23-.559-.438-.832-.66-.246-.2-.493-.403-.73-.61-.259-.227-.509-.465-.759-.7-.367-.343-.734-.687-1.097-1.034-.133-.13-.258-.27-.403-.387-.453-.387-.93-.754-1.37-1.156-.403-.364-.77-.774-1.165-1.153a7.604 7.604 0 0 1-.972-1.148c-.223-.316-.372-.637-.336-1.027.015-.18.195-.461.34-.473.335-.031.667-.027.949.23.48.438.968.868 1.464 1.29.309.257.633.496.946.746.457.363.914.726 1.37 1.093.208.168.419.336.626.508.21.168.418.336.625.508.238.195.472.395.715.59.34.277.683.555 1.03.824.325.246.665.473.985.719.399.305.785.617 1.172.93.344.277.7.546 1.02.847.468.438.859.942 1.129 1.531.074.16.164.313.222.477.035.098-.023.25.035.312.145.16.137.36.153.536.047.586-.043 1.18.062 1.765.028.145.051.32-.008.442-.07.156.047.273.016.406-.008.027.008.062-.004.09-.101.191-.043.398-.058.601-.012.211-.008.422-.043.637-.028.164-.133.29-.137.453-.016.492-.043.98-.059 1.469-.011.32.04.64-.11.941-.01.024.009.075.028.098.016.02.055.02.082.027-.039-.164.145-.199.176-.316.102-.39.379-.68.574-1.016.227-.39.535-.734.79-1.109.253-.371.554-.711.769-1.113.172-.32.394-.618.61-.914.245-.34.523-.657.753-1.004.293-.45.668-.832.98-1.266.266-.371.575-.715.837-1.086.437-.617.832-1.254 1.277-1.86.402-.546.652-1.163.926-1.773.082-.187.156-.379.168-.586.015-.265.183-.496.156-.777-.012-.137.058-.289.097-.43.02-.082.07-.16.07-.242a1.143 1.143 0 0 1 .095-.469c.043-.101.09-.214.082-.32-.02-.265.062-.512.125-.758.023-.09.062-.183.054-.273a2.015 2.015 0 0 1 .125-.79.994.994 0 0 0 .059-.304c.004-1.195 0-2.39 0-3.586 0-.058.015-.12 0-.176a4.767 4.767 0 0 1-.184-1.539c.008-.152-.027-.304-.054-.453-.036-.195-.102-.386-.114-.582-.011-.25.008-.496-.152-.715-.02-.02-.035-.05-.031-.074.043-.25-.117-.433-.211-.633a7.833 7.833 0 0 0-1.13-1.742c-.288-.332-.534-.695-.808-1.039-.191-.242-.398-.469-.59-.71-.23-.302-.453-.61-.675-.915-.317-.43-.645-.848-.946-1.285-.297-.43-.562-.879-.84-1.324-.351-.555-.699-1.114-.96-1.723-.164-.39-.329-.781-.485-1.172-.172-.422-.219-.883-.445-1.281-.02-.04-.016-.094-.024-.14-.02-.122-.007-.266-.07-.356-.101-.14-.11-.281-.11-.438 0-.043-.027-.09-.027-.136-.007-.2-.175-.356-.152-.567.02-.176-.035-.332-.117-.488-.027-.055-.067-.125-.055-.184.07-.36-.254-.644-.187-1-.196-.273-.184-.617-.313-.918-.097-.226-.133-.48-.242-.703a12.452 12.452 0 0 0-.61-1.152 19.692 19.692 0 0 0-.843-1.262c-.242-.336-.516-.648-.781-.965-.34-.406-.672-.82-1.032-1.207-.793-.843-1.64-1.625-2.503-2.39-.215-.188-.422-.383-.633-.57-.153-.137-.207-.137-.41-.016-.04.027-.086.066-.125.062-.235-.03-.41.106-.61.184-.09.031-.234-.031-.289.016-.223.19-.508.195-.758.27-.46.136-.894.358-1.375.44-.086.012-.164.083-.25.114-.215.078-.437.14-.652.226-.23.094-.453.207-.676.313-.293.137-.59.262-.879.406-.254.133-.496.29-.75.43-.136.074-.3.113-.418.207-.23.187-.5.297-.75.43-.222.117-.437.242-.656.367-.23.129-.445.273-.668.41-.195.12-.414.21-.594.37-.132.118-.289.208-.437.31-.297.199-.594.394-.887.601-.476.344-.918.738-1.41 1.059-.317.207-.61.457-.922.668-.523.347-1.055.68-1.578 1.015-.309.2-.617.395-.922.598-.477.312-.953.633-1.426.95-.172-.04-.215.171-.344.183-.265.023-.48.187-.753.218-.2.02-.407.07-.614.086-.343.032-.664-.097-.992-.152-.36-.059-.719-.215-1.062-.375a6.111 6.111 0 0 0-.645-.25c-.375-.125-.762-.219-1.133-.36-.312-.117-.61-.284-.93-.347-.515-.102-.996-.332-1.523-.375a.389.389 0 0 1-.226-.09c-.075-.07-.149-.078-.239-.09-.078-.007-.156-.05-.234-.074-.106-.035-.215-.062-.316-.101a2.921 2.921 0 0 1-.254-.11c-.043-.02-.086-.07-.121-.062-.293.054-.5-.246-.79-.192-.343-.172-.718-.234-1.074-.363-.527-.191-1.047-.41-1.57-.61-.207-.078-.441-.085-.629-.214-.387.023-.723-.258-1.121-.188-.074.012-.168-.07-.254-.105-.059-.024-.121-.07-.18-.063-.203.032-.37-.054-.546-.125-.043-.02-.083-.047-.125-.058-.317-.082-.653-.117-.942-.254-.2-.094-.383-.094-.582-.106a2.034 2.034 0 0 1-.309-.05c-.19-.04-.382-.102-.574-.125-.324-.04-.644.023-.972-.106-.258-.102-.575-.055-.868-.078-.086-.004-.171-.004-.254-.031-.292-.082-.59-.149-.894-.145-.211 0-.461.07-.621-.015-.309-.176-.637-.11-.95-.153-.687-.094-1.382.055-2.074-.117-.441-.11-.925-.059-1.386-.074-.32-.008-.637 0-.957 0-.059 0-.125.015-.176-.004-.336-.14-.7.02-1.031-.117a.148.148 0 0 0-.059 0c-.308.136-.637.12-.965.12-.086 0-.18 0-.261.02-.266.075-.543.09-.797.024-.157-.04-.274-.223-.407-.34.004-.305-.039-.606.223-.867.262-.266.617-.352.902-.567.02-.015.06-.008.09-.004a.486.486 0 0 0 .348-.097c.059-.04.14-.082.203-.074.223.023.414-.055.61-.125.105-.036.222-.051.335-.06.157-.01.332.04.473-.01.426-.15.86-.184 1.305-.169 1.304.035 2.613-.074 3.918.047.117.008.246.027.37.016.138-.008.286.015.423.058.238.075.48.051.722.055.11.004.227-.027.325.008.316.113.636.195.976.172.028 0 .067-.012.086.004.262.183.57.129.852.191.28.066.55.184.847.176.27.226.657.074.93.289.29-.016.54.14.813.2.074.015.164.003.218.046.246.184.543.238.82.32.204.063.391.207.633.157.082-.016.184.07.278.109.043.02.086.062.12.058.427-.058.79.262 1.212.188.031-.008.066.035.097.05.176.071.344.165.547.13a.187.187 0 0 1 .157.043c.117.105.25.117.394.136.25.032.457.223.727.2.183.199.468.156.699.257.219.098.48.125.719.207.351.118.707.204 1.058.332.262.098.528.235.82.258.094.008.188.114.278.11.336-.02.601.27.941.187.008 0 .016.016.024.02.226.183.535.136.785.273.094.05.238.016.324.074.121.078.227.2.379.164.18-.039.258.157.422.145.05 0 .105.035.16.039.297.008.543.238.848.195.007-.004.015.012.023.02.211.172.492.148.727.258.285.132.597.054.898.062.11 0 .234-.023.324-.078a79.2 79.2 0 0 0 1.657-1.055c.347-.222.69-.449 1.035-.675.222-.141.441-.282.664-.422.34-.211.676-.43 1.02-.633.35-.211.702-.414 1.062-.61.234-.128.48-.234.722-.347.332-.16.664-.32 1.028-.508zm7.5 72.812c.04-.02.083-.047.126-.059.328-.086.672-.03 1.004-.168.292-.12.628-.074.94-.175.31-.094.657-.051.99-.078.14-.008.28-.036.421-.06.113-.015.223-.042.332-.054.184-.027.399.012.535-.078.149-.098.285-.098.438-.105.035-.004.066-.032.101-.043.34-.106.625-.301.883-.532.293-.265.543-.574.918-.742a.71.71 0 0 0 .293-.23c.336-.465.66-.942.984-1.418.344-.508.657-1.051.915-1.617.19-.418.425-.82.636-1.23.266-.513.532-1.02.844-1.5.078-.118.094-.259.004-.364a2.21 2.21 0 0 0-.399-.34c-.296-.203-.648-.285-.988-.336-.21-.027-.398-.125-.605-.133a10.26 10.26 0 0 1-.606-.047c-.383-.03-.765-.047-1.144-.125a.794.794 0 0 0-.395 0c-.465.153-.953.09-1.422.172-.132.024-.261.04-.394.059-.113.02-.223.043-.332.062-.078.012-.153.016-.227.032-.191.046-.379.14-.566.136-.383-.008-.703.25-1.086.203-.3.239-.73.086-1.024.344-.011.008-.039.004-.058 0-.207-.031-.387.07-.578.117-.2.051-.41.07-.606.125-.199.059-.39.145-.61.121-.05-.003-.1.036-.155.051-.2.059-.39.137-.606.13a.78.78 0 0 0-.316.023c-.301.101-.613.128-.926.152-.258.02-.523.02-.781.062a9.683 9.683 0 0 1-1.684.118c-.058-.004-.12-.016-.176.003-.238.083-.48.114-.73.114h-3.195c-.079 0-.168.027-.235-.004-.304-.133-.625-.106-.941-.117-.301-.012-.625.027-.895-.075-.3-.117-.586-.078-.883-.105-.16-.012-.343 0-.472-.074-.195-.121-.387-.102-.586-.098a3.775 3.775 0 0 1-1.027-.121 1.925 1.925 0 0 0-.395-.059c-.148-.011-.309.028-.441-.015a3.501 3.501 0 0 0-1.188-.172c-.437.016-.875.004-1.312.004-.067 0-.145-.008-.2.02-.257.124-.511.257-.761.398-.121.07-.239.152-.348.242-.375.293-.75.59-1.078.937-.43.461-.856.926-1.309 1.364-.347.332-.746.613-1.101.937-.344.317-.746.555-1.125.82-.438.31-.89.594-1.328.899-.473.328-.942.668-1.41 1.004-.036.027-.067.066-.102.101.043.008.09.028.133.032.28.02.566.011.84.066.55.11 1.101.117 1.656.113.039 0 .082-.007.117 0 .36.09.726.082 1.086.118.34.03.683.039 1.023.062.043.004.082.035.125.05.207.067.41.142.637.13.172-.008.34 0 .516.05.234.067.48.094.722.126.305.035.625-.082.906.12.016.009.04 0 .063 0 .238.005.48.024.723.048.539.054 1.078-.004 1.625.117.41.094.855.004 1.285.066.418.059.847.016 1.27.059.648.058 1.296.058 1.949.066.863.012 1.73-.004 2.597.004.422.008.848.04 1.27.059.027.004.058.004.082.015.207.09.422.102.644.106.621.011 1.239.039 1.86.058.039 0 .082-.007.117.004.266.094.547.106.816.11 1.344.015 2.688.007 4.035.004.083 0 .168-.02.286-.06z"></path><path d="M46.289 44.461c-.316.203-.613.395-.914.582-.293.18-.586.363-.883.535-.305.18-.61.36-.922.52-.285.148-.586.265-.879.406-.304.145-.605.309-.918.45-.324.148-.66.273-.988.421-.246.11-.531.102-.754.281-.062.055-.187.016-.273.055-.364.148-.762.164-1.125.309-.18.074-.41.011-.598.078-.426.148-.863.105-1.297.11-.547.007-1.094.003-1.644 0a.66.66 0 0 1-.301-.063c-.137-.07-.27-.133-.43-.118-.039.004-.082-.039-.125-.05a6.206 6.206 0 0 1-1.34-.664c-.195-.13-.398-.262-.574-.418-.449-.414-.91-.82-1.32-1.27a10.283 10.283 0 0 1-1.371-1.91c-.121-.219-.29-.43-.352-.66-.054-.2-.195-.356-.226-.567-.024-.156-.22-.27-.172-.465-.207-.19-.125-.503-.293-.714a.34.34 0 0 1-.059-.211c.028-.242-.078-.446-.152-.657a.272.272 0 0 1-.031-.105 2.034 2.034 0 0 0-.106-.676c-.09-.254-.05-.554-.078-.836-.008-.11-.039-.218-.062-.332-.012-.05-.051-.101-.051-.156-.024-.586-.055-1.176-.059-1.766 0-.332-.066-.668.05-.992-.124-.195.052-.379.013-.578-.035-.191-.012-.398-.004-.598.004-.09.039-.18.054-.273.063-.36.13-.719.122-1.086 0-.02-.004-.043 0-.059.101-.25.128-.511.14-.777.004-.086.024-.172.04-.254.01-.062.03-.129.042-.191a5.75 5.75 0 0 0 .074-.356c.024-.132.004-.289.07-.39.169-.25.067-.54.169-.797.078-.192.164-.387.129-.61-.008-.035.086-.078.105-.128.035-.086.047-.18.066-.274.016-.062.02-.129.043-.191.196-.5.403-1 .739-1.426.347-.438.734-.832 1.289-1.016.176-.058.336-.152.508-.21.168-.06.351-.075.507-.15.266-.132.559-.14.829-.155.347-.016.671-.149 1.023-.145.926.012 1.852.008 2.777.004.426 0 .848.016 1.266.121.027.008.058 0 .09 0 .765.02 1.535.04 2.304.063.09.004.18.043.274.054.14.024.281.051.422.059.41.027.82.031 1.23.07.211.02.414.13.625.137.383.012.735.168 1.11.219.156.02.304.07.457.117.246.074.496.152.738.238.234.086.453.227.691.266.301.05.559.207.848.277.23.055.445.176.676.235.242.062.449.214.707.246.207.027.394.148.594.226.058.024.12.043.18.063.37.14.75.265 1.109.425.273.118.55.211.824.317.215.086.406.258.621.297.21.039.36.191.57.226.157.028.301.133.446.215.375.2.746.414 1.12.61.403.207.813.398 1.223.59.528.25 1.012.554 1.473.921.285.227.508.489.649.809.152.336.199.7.062 1.055a2.298 2.298 0 0 1-.293.535c-.18.23-.394.433-.586.656-.203.23-.402.465-.594.71-.218.286-.418.583-.636.872-.352.46-.715.918-1.075 1.375-.043.055-.097.098-.148.148-.71.711-1.41 1.434-2.137 2.13-.468.449-.972.863-1.46 1.288-.286.247-.57.497-.86.739-.289.238-.578.472-.875.695-.363.273-.734.54-1.102.805-.336.242-.675.48-1.03.734zm30.461-3.184a27.857 27.857 0 0 1-1.074-.508c-.38-.187-.762-.37-1.137-.57-.262-.137-.512-.3-.773-.442-.293-.156-.594-.3-.887-.453-.246-.129-.488-.265-.734-.39-.297-.153-.598-.293-.891-.446-.379-.199-.742-.425-1.125-.609-.277-.129-.531-.297-.813-.414-.273-.113-.511-.305-.77-.453-.358-.211-.741-.39-1.085-.621-.363-.246-.777-.406-1.125-.684-.242-.199-.535-.336-.8-.508-.356-.23-.716-.453-1.052-.707a9.479 9.479 0 0 1-1.078-.945 4.59 4.59 0 0 1-.863-1.227c-.125-.257-.305-.527-.254-.851.004-.04.016-.094-.004-.117-.207-.262-.082-.567-.117-.848 0-.02-.008-.043.004-.059.129-.218.094-.476.18-.703.16-.406.324-.82.648-1.136.211-.207.402-.438.68-.579.324-.16.617-.394.957-.503.43-.137.77-.434 1.195-.579.3-.105.555-.347.856-.457.3-.113.562-.308.89-.382.215-.047.41-.207.617-.305.16-.07.32-.14.489-.188.175-.046.328-.156.484-.195.18-.043.332-.156.496-.176.215-.023.379-.18.578-.191.211-.008.367-.149.555-.176.484-.066.93-.265 1.398-.387.192-.05.399-.09.586-.168.188-.082.41-.105.575-.195.156-.086.324-.082.476-.148.149-.063.297-.172.484-.137.051.012.114-.055.168-.09.028-.016.043-.058.067-.058.234 0 .422-.137.633-.204.078-.023.164-.039.238-.078.101-.05.191-.11.316-.105.047.004.102-.04.153-.059.265-.101.53-.203.804-.289.082-.027.164-.012.235-.09a.297.297 0 0 1 .203-.082c.262.004.488-.168.726-.175.25-.008.504-.157.758-.02.016.012.04.008.059.004.344-.07.555.129.789.34.473.437.808.96 1.09 1.527.129.262.207.55.343.809.211.394.465.765.668 1.16.094.187.243.351.27.578.016.121.098.242.176.34.148.18.16.414.285.605.125.184.172.426.25.64.062.165.113.333.187.49.149.296.356.577.446.89.05.183.168.328.207.511a1.7 1.7 0 0 0 .18.493c.269.445.378.96.648 1.41.152.258.226.562.37.828.126.227.192.48.34.7.095.14.126.323.196.484.145.328.316.648.438.984.097.266.253.516.277.812.008.067.062.133.086.204.035.105.058.21.09.32.02.062.043.121.058.183.051.18.125.352.13.547.003.164.081.325.124.485.016.062.043.125.047.187.008.239-.031.485.117.7.012.015 0 .039.004.058.078.738.055 1.477.059 2.215-.149.277.054.625-.176.887.023.253-.11.468-.172.703-.062.234-.187.422-.312.617-.098.148-.188.32-.32.43a3.922 3.922 0 0 1-.727.484c-.137.07-.32.035-.477.074-.305.078-.597.078-.887-.055-.05-.02-.117-.011-.175-.007-.188.02-.348-.04-.52-.114-.219-.093-.457-.14-.676-.242-.183-.086-.386-.125-.57-.21a61.612 61.612 0 0 1-1.45-.692c-.245-.121-.487-.258-.741-.367-.465-.2-.899-.465-1.371-.657-.301-.12-.57-.312-.852-.468-.113-.063-.27-.047-.375-.18zm-20.332-3.839c.035-.137.055-.258.078-.375.016-.094.04-.184.055-.277.066-.352.222-.649.555-.805.195-.09.398-.156.628-.152.192.004.375-.055.582 0 .332.09.641.379.754.691.192.523.164 1.063.172 1.602.004.14.02.289.063.422.086.246.05.5.054.75.008.488-.007.976.004 1.464.008.418-.035.856.078 1.243.13.449 0 .914.168 1.332.172.43.02.914.282 1.32.03.047.011.133.007.203-.019.262.02.512.118.758.043.113.054.238.058.363.012.227.004.457.004.684 0 .171.012.343-.105.496a.475.475 0 0 0-.07.265c.003.285-.169.512-.262.762-.078.211-.254.39-.39.582-.224.313-.462.461-.821.52-.063.011-.121.039-.18.066-.148.078-.289.105-.426-.02-.027-.023-.07-.046-.101-.042-.309.03-.535-.153-.774-.297-.472-.293-.672-.797-.933-1.25-.16-.274-.157-.606-.29-.895-.078-.172-.062-.394-.066-.598-.012-.367-.058-.746.012-1.101.078-.402-.059-.832.16-1.215.024-.043 0-.117.004-.176.02-.39-.031-.8.078-1.164.125-.426.086-.855.145-1.277.066-.485.172-.969.148-1.473-.016-.351.11-.707.164-1.058.012-.079 0-.16.004-.239.008-.367.02-.73.043-1.11zm5.871 7.187a4.128 4.128 0 0 0-.066-.395c-.008-.03-.047-.062-.051-.093-.024-.23-.04-.461-.063-.692-.015-.12-.047-.238-.074-.36-.016-.073-.043-.144-.043-.218-.004-.36.004-.719-.004-1.078-.011-.508-.035-1.016-.058-1.527-.004-.051-.04-.102-.059-.153-.02-.062-.05-.125-.059-.187-.023-.238-.043-.48-.062-.719 0-.031.016-.07 0-.09-.191-.242-.094-.523-.121-.789-.012-.12-.012-.254-.063-.36-.183-.421-.097-.862-.109-1.296 0-.082.062-.18.117-.25.195-.234.39-.465.754-.402.106.02.219-.004.328.004.082.007.176.02.242.062.32.203.618.438.828.77.258.402.551.785.793 1.195.235.406.434.836.637 1.258.145.297.293.597.395.91.082.258.258.476.27.758 0 .066.073.129.093.199.09.289.187.582.254.879.031.144-.012.305.105.437a.37.37 0 0 1 .075.235c-.063.5.27.949.183 1.449.207.23.11.531.16.793.055.277.036.578-.015.875-.035.207-.098.402-.149.601a1.617 1.617 0 0 1-.207.45c-.258.382-.586.71-.988.918-.313.156-.668.324-1.04.214-.456-.128-.894-.316-1.14-.77-.082-.155-.218-.296-.258-.46-.062-.273-.257-.5-.25-.793 0-.07-.02-.16-.062-.21-.11-.122-.098-.259-.121-.403-.027-.18-.102-.356-.149-.532-.02-.066-.015-.136-.023-.23z"></path></g></svg>